<?xml version="1.0" standalone="no"?>
<!DOCTYPE svg PUBLIC "-//W3C//DTD SVG 20010904//EN"
 "http://www.w3.org/TR/2001/REC-SVG-20010904/DTD/svg10.dtd">
<svg version="1.0" xmlns="http://www.w3.org/2000/svg"
 width="257.000000pt" height="196.000000pt" viewBox="0 0 257.000000 196.000000"
 preserveAspectRatio="xMidYMid meet">

<g transform="translate(0.000000,196.000000) scale(0.100000,-0.100000)"
fill="#000000" stroke="none">
<path d="M855 1775 c-31 -31 -50 -138 -50 -285 0 -89 5 -141 17 -181 26 -83
82 -161 144 -200 l52 -34 4 -80 3 -80 228 -3 227 -2 0 70 c0 38 4 70 9 70 15
0 38 -38 58 -92 l17 -48 63 0 c71 0 70 0 48 74 -29 94 -105 191 -171 216 -21
8 -24 16 -24 61 0 57 -23 66 -28 11 -2 -24 -8 -32 -23 -32 -13 0 -19 -6 -17
-17 3 -19 5 -19 -89 -14 l-48 2 35 15 c115 50 155 204 77 299 -34 42 -96 74
-141 75 -82 0 -175 -91 -184 -180 -7 -78 63 -183 132 -198 l31 -6 -30 -7 c-60
-13 -85 -10 -85 10 0 15 -8 21 -32 23 -28 2 -34 8 -36 31 -5 40 -32 35 -32 -5
l0 -33 -20 25 c-11 14 -27 48 -37 75 -24 68 -23 254 1 343 16 58 16 66 1 88
-8 13 -19 24 -23 25 -4 0 -18 2 -31 3 -15 2 -34 -6 -46 -19z"/>
<path d="M1010 1561 c0 -39 4 -51 15 -51 10 0 15 11 15 35 0 32 2 35 31 35 47
0 30 24 -19 28 l-42 3 0 -50z"/>
<path d="M1410 1595 c0 -8 9 -15 19 -15 14 0 21 -8 23 -27 6 -48 28 -39 28 11
0 46 0 46 -35 46 -24 0 -35 -5 -35 -15z"/>
<path d="M630 809 c0 -33 4 -59 10 -59 6 0 10 11 10 25 0 14 4 25 8 25 5 0 14
-11 20 -25 6 -14 16 -25 22 -25 13 0 13 6 -1 31 -7 15 -7 24 0 33 11 13 6 44
-8 48 -3 0 -18 2 -33 3 -28 2 -28 1 -28 -56z m58 24 c2 -8 -5 -13 -17 -13 -12
0 -21 6 -21 16 0 18 31 15 38 -3z"/>
<path d="M970 812 l0 -62 30 0 c17 0 30 5 30 10 0 6 -11 10 -24 10 -22 0 -24
4 -24 46 0 25 -3 48 -6 52 -3 3 -6 -22 -6 -56z"/>
<path d="M1120 811 l0 -61 30 0 c17 0 30 5 30 10 0 6 -9 10 -20 10 -17 0 -20
7 -20 44 0 25 -4 48 -10 51 -6 4 -10 -17 -10 -54z"/>
<path d="M1446 824 c-20 -60 -21 -87 -2 -61 7 9 19 17 26 17 7 0 19 -8 26 -17
12 -16 13 -16 14 -2 0 23 -21 82 -35 97 -10 11 -16 5 -29 -34z m34 -14 c0 -5
-4 -10 -10 -10 -5 0 -10 5 -10 10 0 6 5 10 10 10 6 0 10 -4 10 -10z"/>
<path d="M1600 811 l0 -61 30 0 c17 0 30 5 30 10 0 6 -9 10 -20 10 -17 0 -20
7 -20 44 0 25 -4 48 -10 51 -6 4 -10 -17 -10 -54z"/>
<path d="M1787 859 c-5 -9 -7 -36 -5 -60 3 -42 5 -44 36 -47 18 -2 32 1 32 7
0 6 -11 11 -24 11 -23 0 -25 4 -28 53 -2 34 -6 46 -11 36z"/>
<path d="M802 848 c-27 -27 -2 -98 36 -98 20 0 42 31 42 59 0 32 -16 51 -45
51 -12 0 -26 -5 -33 -12z m53 -38 c0 -28 -4 -35 -20 -35 -13 0 -21 8 -23 23
-5 34 5 54 25 50 13 -2 18 -13 18 -38z"/>
<path d="M1270 835 c-19 -50 26 -104 59 -71 8 9 11 19 7 23 -5 5 -11 2 -13 -4
-7 -20 -31 -15 -38 7 -11 34 26 81 38 48 2 -7 8 -10 12 -6 12 12 -5 28 -31 28
-17 0 -27 -8 -34 -25z"/>
<path d="M490 665 l0 -55 50 0 50 0 0 -205 0 -205 30 0 30 0 2 203 3 202 85 0
85 0 3 -122 c2 -100 5 -123 17 -123 12 0 15 22 15 125 l0 125 370 0 369 0 3
-125 c4 -164 21 -165 28 -3 l5 123 90 0 90 0 3 -202 2 -203 30 0 30 0 0 205 0
205 55 0 55 0 0 55 0 55 -750 0 -750 0 0 -55z"/>
</g>
</svg>
