<?xml version="1.0" standalone="no"?>
<!DOCTYPE svg PUBLIC "-//W3C//DTD SVG 20010904//EN"
 "http://www.w3.org/TR/2001/REC-SVG-20010904/DTD/svg10.dtd">
<svg version="1.0" xmlns="http://www.w3.org/2000/svg"
 width="172.000000pt" height="133.000000pt" viewBox="0 0 172.000000 133.000000"
 preserveAspectRatio="xMidYMid meet">

<g transform="translate(0.000000,133.000000) scale(0.100000,-0.100000)"
fill="#000000" stroke="none">
<path d="M565 1136 c0 -39 3 -45 24 -49 17 -3 25 1 28 14 3 12 14 19 29 19 20
0 24 5 24 30 0 30 -1 30 -52 30 l-53 0 0 -44z"/>
<path d="M1084 1164 c3 -9 6 -22 6 -30 0 -8 9 -14 20 -14 15 0 20 -7 20 -25 0
-27 3 -28 38 -19 19 6 22 13 22 55 l0 49 -56 0 c-47 0 -55 -3 -50 -16z"/>
<path d="M840 1085 c-64 -13 -87 -24 -117 -57 -21 -23 -53 -124 -53 -171 0
-49 57 -97 133 -111 30 -6 37 -11 37 -30 0 -34 -28 -54 -87 -62 -59 -7 -89
-32 -99 -82 l-6 -32 206 0 206 0 0 23 c0 33 -11 44 -60 65 -56 24 -72 43 -68
79 3 24 9 29 41 34 20 3 39 8 41 10 16 19 36 74 36 103 0 20 5 55 12 79 16 61
5 92 -45 124 -53 34 -107 42 -177 28z"/>
<path d="M1130 736 c0 -21 -5 -26 -25 -26 -21 0 -25 -5 -25 -31 l0 -30 53 3
52 3 0 50 c0 47 -2 50 -27 53 -24 3 -28 0 -28 -22z"/>
<path d="M575 734 c-10 -10 -14 -25 -11 -38 3 -12 6 -27 6 -33 0 -9 17 -13 50
-13 49 0 50 1 50 30 0 25 -4 30 -25 30 -18 0 -25 5 -25 20 0 24 -23 26 -45 4z"/>
<path d="M480 475 c0 -25 5 -45 10 -45 6 0 10 8 10 18 1 16 1 16 14 0 19 -25
22 -23 23 19 1 39 -9 53 -39 53 -15 0 -18 -9 -18 -45z m40 15 c0 -5 -4 -10
-10 -10 -5 0 -10 5 -10 10 0 6 5 10 10 10 6 0 10 -4 10 -10z"/>
<path d="M595 504 c-30 -31 0 -86 39 -71 28 11 15 87 -15 87 -4 0 -15 -7 -24
-16z m39 -21 c4 -9 0 -23 -8 -32 -14 -13 -16 -13 -22 2 -7 20 1 47 15 47 5 0
12 -8 15 -17z"/>
<path d="M700 476 c0 -44 1 -46 28 -45 16 1 20 3 10 6 -13 3 -18 14 -18 38 0
19 -4 37 -10 40 -6 4 -10 -12 -10 -39z"/>
<path d="M896 504 c-20 -19 -20 -48 -1 -64 18 -15 47 -10 53 10 4 12 2 13 -9
3 -19 -15 -42 -1 -37 23 3 13 11 18 26 17 25 -3 30 12 6 21 -21 8 -20 8 -38
-10z"/>
<path d="M1111 478 c-1 -46 0 -48 27 -47 23 0 24 1 7 8 -13 5 -22 21 -26 47
l-6 39 -2 -47z"/>
<path d="M790 470 c0 -39 1 -40 33 -39 29 0 30 1 10 9 -17 7 -23 18 -23 40 0
16 -4 30 -10 30 -5 0 -10 -18 -10 -40z"/>
<path d="M1002 473 c-12 -39 -7 -58 8 -33 8 13 13 13 31 2 28 -18 30 -14 12
31 -19 47 -37 47 -51 0z m33 -3 c3 -5 1 -10 -4 -10 -6 0 -11 5 -11 10 0 6 2
10 4 10 3 0 8 -4 11 -10z"/>
<path d="M1200 470 c0 -39 1 -40 33 -39 29 0 30 1 10 9 -17 7 -23 18 -23 40 0
16 -4 30 -10 30 -5 0 -10 -18 -10 -40z"/>
<path d="M420 375 c0 -20 5 -25 25 -25 l25 0 0 -120 0 -120 25 0 25 0 0 120 0
120 40 0 40 0 0 -90 c0 -53 4 -90 10 -90 6 0 10 37 10 90 l0 90 245 0 245 0 0
-90 c0 -53 4 -90 10 -90 6 0 10 37 10 90 l0 90 35 0 35 0 0 -120 0 -120 25 0
25 0 0 120 0 120 35 0 c31 0 35 3 35 25 l0 25 -450 0 -450 0 0 -25z"/>
</g>
</svg>
