<?xml version="1.0" standalone="no"?>
<!DOCTYPE svg PUBLIC "-//W3C//DTD SVG 20010904//EN"
 "http://www.w3.org/TR/2001/REC-SVG-20010904/DTD/svg10.dtd">
<svg version="1.0" xmlns="http://www.w3.org/2000/svg"
 width="1168.000000pt" height="1056.000000pt" viewBox="0 0 1168.000000 1056.000000"
 preserveAspectRatio="xMidYMid meet">
<metadata>
Created by potrace 1.16, written by Peter Selinger 2001-2019
</metadata>
<g transform="translate(0.000000,1056.000000) scale(0.100000,-0.100000)"
fill="#000000" stroke="none">
<path d="M6628 7493 c-68 -78 -97 -534 -79 -1263 11 -456 21 -577 61 -732 11
-43 20 -107 20 -143 0 -85 17 -84 24 3 4 37 15 105 26 152 11 47 26 130 35
186 22 152 38 720 32 1134 -5 316 -4 362 8 346 34 -45 48 -161 42 -350 -3
-100 -13 -222 -21 -273 -10 -65 -12 -103 -5 -133 12 -51 26 -80 40 -80 19 0
21 32 4 71 -18 38 -18 46 -2 162 47 340 24 601 -59 684 -15 15 -27 44 -34 86
-18 105 -44 167 -70 167 -4 0 -14 -8 -22 -17z m72 -290 c0 -10 5 -126 11 -258
10 -231 -1 -947 -17 -1082 l-6 -53 -48 0 -48 0 -7 288 c-8 288 0 972 11 1070
l7 52 48 0 c40 0 49 -3 49 -17z"/>
<path d="M6306 7478 c-17 -26 -46 -130 -46 -164 0 -32 -10 -54 -25 -54 -20 0
-62 -95 -80 -178 -21 -105 -19 -317 5 -502 19 -138 19 -155 5 -176 -17 -26
-20 -70 -5 -79 15 -10 43 43 48 93 2 26 -4 106 -13 177 -23 174 -23 400 -2
483 41 156 42 148 43 -541 0 -705 6 -805 59 -1032 13 -55 26 -124 29 -153 l5
-53 -197 5 c-108 3 -674 8 -1257 10 -767 3 -925 1 -570 -4 270 -4 840 -10
1268 -13 l777 -5 0 56 c0 32 9 91 21 132 53 199 68 440 69 1060 0 460 -10 683
-36 817 -25 126 -64 173 -98 121z m90 -405 c10 -162 10 -831 -1 -1098 l-7
-185 -53 0 -53 0 -7 243 c-11 357 -11 798 -1 1000 l8 177 53 0 53 0 8 -137z
m-22 -1415 c-6 -46 -18 -105 -25 -133 l-13 -50 -17 67 c-9 37 -20 97 -24 133
l-7 65 50 0 49 0 -13 -82z"/>
<path d="M3910 6855 l0 -425 50 0 50 0 2 168 3 167 325 0 c350 -1 386 -5 417
-51 11 -17 17 -59 21 -154 l5 -130 48 0 49 0 0 113 c0 166 -18 214 -90 245
l-35 15 30 10 c42 13 82 54 97 96 7 20 13 81 13 136 0 217 -48 235 -647 235
l-338 0 0 -425z m805 325 c63 -14 75 -37 75 -145 0 -183 11 -179 -435 -180
l-340 0 -3 168 -2 167 332 0 c183 0 351 -5 373 -10z"/>
<path d="M5073 7250 l-23 -9 0 -415 c0 -400 1 -416 19 -426 13 -6 179 -10 471
-10 292 0 458 4 471 10 18 10 19 26 19 426 l0 414 -26 10 c-32 13 -901 12
-931 0z m897 -420 l0 -340 -430 0 -430 0 0 340 0 340 430 0 430 0 0 -340z"/>
<path d="M5285 7019 c-4 -6 -4 -13 0 -17 4 -4 118 -7 255 -7 137 0 251 3 255
7 24 23 -20 28 -255 28 -165 0 -251 -4 -255 -11z"/>
<path d="M4279 6230 c-155 -15 -230 -61 -265 -162 -16 -46 -19 -84 -19 -278 1
-211 2 -229 24 -283 17 -43 34 -66 64 -88 70 -51 121 -60 357 -66 447 -11 547
32 574 250 l6 47 -54 0 -53 0 -6 -60 c-6 -73 -26 -106 -75 -128 -31 -14 -81
-17 -312 -19 -318 -3 -358 3 -395 67 -18 32 -20 55 -23 272 -3 217 -2 241 16
281 14 31 30 49 58 63 36 17 63 19 329 19 266 0 293 -2 329 -19 45 -22 75 -79
76 -139 l0 -38 53 3 52 3 -3 50 c-7 98 -55 166 -141 199 -81 31 -392 45 -592
26z"/>
<path d="M5298 6001 c-37 -9 -77 -26 -89 -37 -25 -22 -49 -73 -49 -104 0 -17
6 -20 48 -20 43 0 48 3 62 33 24 52 56 61 220 61 123 1 151 -2 183 -18 51 -25
76 -76 84 -171 l6 -76 -34 20 c-56 33 -145 44 -311 39 -178 -4 -230 -21 -270
-86 -31 -51 -32 -148 -2 -189 48 -63 152 -93 335 -93 137 0 198 15 245 61 l34
33 0 -42 0 -42 51 0 51 0 -4 228 c-3 221 -4 229 -29 283 -50 106 -131 139
-339 138 -85 0 -146 -6 -192 -18z m371 -372 c104 -22 123 -121 32 -166 -45
-22 -300 -31 -382 -14 -74 16 -89 32 -89 96 0 52 13 74 50 88 28 10 338 7 389
-4z"/>
<path d="M3820 5278 c0 -5 638 -7 1418 -7 779 1 1406 3 1392 5 -56 7 -2810 9
-2810 2z"/>
<path d="M2366 5068 c-36 -60 -156 -267 -156 -272 0 -3 9 -6 20 -6 13 0 26 12
37 35 l17 35 121 0 122 0 19 -35 c12 -24 26 -35 40 -35 20 0 14 15 -64 150
-78 135 -90 150 -114 150 -18 0 -33 -8 -42 -22z m93 -90 l50 -88 -99 0 c-55 0
-100 3 -100 6 0 7 94 174 96 171 1 -1 25 -41 53 -89z"/>
<path d="M5170 5045 c0 -42 -2 -45 -19 -35 -25 13 -132 13 -166 0 -60 -23 -73
-152 -20 -197 22 -19 38 -23 99 -23 44 0 77 5 85 13 11 10 14 10 18 0 3 -7 13
-13 24 -13 18 0 19 9 19 150 0 143 -1 150 -20 150 -17 0 -20 -7 -20 -45z m-18
-72 c13 -12 18 -31 18 -73 0 -75 -12 -85 -102 -85 -83 0 -98 13 -98 89 0 71
17 86 98 86 47 0 71 -5 84 -17z"/>
<path d="M5542 4983 c-34 -59 -73 -127 -88 -150 l-25 -43 24 0 c17 0 28 10 40
35 l17 35 120 0 121 0 20 -35 c12 -20 29 -35 40 -35 10 0 19 2 19 4 0 2 -38
68 -84 147 -74 128 -87 144 -113 147 -26 3 -32 -4 -91 -105z m142 -5 c25 -44
45 -83 42 -85 -2 -2 -46 -2 -98 -1 l-95 3 46 82 c25 45 49 83 52 83 4 0 28
-37 53 -82z"/>
<path d="M7280 5045 c0 -42 -2 -45 -19 -35 -26 13 -144 13 -174 -1 -33 -15
-47 -49 -47 -113 0 -82 19 -100 114 -104 58 -3 82 0 101 12 22 14 25 15 25 1
0 -8 7 -15 15 -15 13 0 15 23 15 150 0 127 -2 150 -15 150 -11 0 -15 -12 -15
-45z m-20 -70 c7 -9 15 -37 18 -63 3 -37 0 -53 -16 -72 -18 -22 -28 -25 -87
-25 -59 0 -69 3 -87 25 -26 32 -21 116 8 137 26 19 148 18 164 -2z"/>
<path d="M3000 5050 c0 -23 -4 -30 -20 -30 -11 0 -20 -7 -20 -15 0 -8 9 -15
20 -15 18 0 20 -7 20 -74 0 -99 20 -126 91 -126 40 0 55 5 74 25 26 25 34 75
12 75 -7 0 -17 -15 -22 -32 -9 -30 -14 -33 -54 -36 -28 -2 -47 1 -52 10 -5 7
-9 46 -9 86 l0 72 70 0 c56 0 70 3 70 15 0 12 -14 15 -70 15 l-70 0 0 30 c0
23 -4 30 -20 30 -16 0 -20 -7 -20 -30z"/>
<path d="M4400 5050 c0 -25 -4 -30 -25 -30 -32 0 -34 -27 -2 -32 20 -3 22 -9
27 -86 6 -98 17 -112 92 -112 57 0 88 24 88 70 0 38 -17 39 -26 3 -9 -36 -20
-43 -67 -43 -32 0 -39 4 -48 27 -5 15 -9 52 -7 82 l3 56 73 3 c55 2 72 6 72
17 0 12 -16 15 -75 15 l-75 0 0 30 c0 20 -5 30 -15 30 -10 0 -15 -10 -15 -30z"/>
<path d="M5910 5051 c0 -23 -5 -30 -22 -33 -32 -5 -35 -28 -4 -28 26 0 26 -1
26 -80 0 -67 3 -83 20 -100 26 -26 109 -28 138 -2 26 22 40 82 19 82 -8 0 -18
-15 -23 -32 -9 -32 -12 -33 -59 -33 l-50 0 -3 83 -3 82 71 0 c56 0 70 3 70 15
0 12 -14 15 -70 15 l-70 0 0 30 c0 23 -4 30 -20 30 -15 0 -20 -7 -20 -29z"/>
<path d="M6180 5050 c0 -23 -4 -30 -20 -30 -11 0 -20 -7 -20 -15 0 -8 8 -15
19 -15 16 0 19 -10 23 -82 4 -69 8 -84 28 -100 34 -28 105 -24 135 7 28 27 34
75 10 75 -9 0 -15 -9 -15 -23 0 -33 -18 -47 -61 -47 -51 0 -60 16 -57 97 l3
68 68 3 c51 2 67 6 67 17 0 12 -15 15 -70 15 l-70 0 0 30 c0 23 -4 30 -20 30
-16 0 -20 -7 -20 -30z"/>
<path d="M2650 4932 c0 -75 3 -93 21 -116 19 -24 27 -26 93 -26 49 0 79 5 94
16 20 14 22 14 22 0 0 -9 9 -16 20 -16 20 0 21 5 18 112 -3 98 -5 113 -20 116
-16 3 -18 -6 -18 -81 0 -69 -3 -87 -19 -101 -25 -22 -109 -31 -141 -14 -23 13
-25 20 -30 103 -4 75 -8 90 -22 93 -16 3 -18 -6 -18 -86z"/>
<path d="M3268 5004 c-53 -28 -60 -143 -12 -191 20 -20 33 -23 98 -23 116 0
146 23 146 115 0 55 -15 90 -47 104 -35 16 -153 13 -185 -5z m177 -28 c26 -19
27 -118 2 -143 -27 -27 -153 -25 -173 1 -19 26 -18 106 2 134 13 19 24 22 83
22 42 0 74 -5 86 -14z"/>
<path d="M3550 4905 c0 -91 3 -115 14 -115 10 0 15 22 18 86 4 70 8 89 23 100
23 17 117 18 133 2 8 -8 12 -45 12 -100 0 -81 2 -88 20 -88 18 0 20 7 20 84 0
76 2 86 22 100 13 9 43 16 70 16 65 0 78 -21 78 -122 0 -63 3 -78 15 -78 12 0
15 17 15 95 0 82 -3 98 -20 115 -25 25 -116 28 -161 4 -28 -14 -32 -14 -48 0
-23 21 -120 22 -147 1 -25 -19 -34 -19 -34 0 0 8 -7 15 -15 15 -12 0 -15 -19
-15 -115z"/>
<path d="M4082 5004 c-24 -17 -30 -44 -8 -44 7 0 19 7 26 15 9 10 32 15 76 15
71 0 94 -14 94 -60 0 -28 -1 -28 -37 -18 -45 12 -148 5 -168 -12 -25 -21 -19
-77 10 -96 32 -21 157 -23 181 -3 14 11 18 11 21 2 3 -7 11 -13 19 -13 11 0
14 18 14 80 0 89 -11 123 -47 139 -37 17 -154 14 -181 -5z"/>
<path d="M4670 5007 c-32 -16 -50 -52 -50 -104 0 -90 30 -113 149 -113 63 0
81 4 94 18 10 10 17 24 17 30 0 18 -21 15 -35 -5 -8 -11 -31 -18 -71 -20 -72
-5 -108 11 -112 50 l-3 27 110 0 111 0 0 34 c0 48 -8 65 -41 81 -34 18 -135
19 -169 2z"/>
<path d="M6455 5008 c-35 -20 -44 -42 -45 -106 0 -54 4 -66 25 -87 22 -23 32
-25 107 -25 86 0 128 15 128 46 0 20 -30 18 -46 -3 -10 -14 -27 -18 -83 -18
-75 0 -86 5 -96 48 l-7 27 116 0 116 0 0 36 c0 26 -8 43 -29 65 -27 26 -35 29
-98 29 -37 0 -77 -6 -88 -12z"/>
<path d="M6727 5013 c-4 -3 -7 -55 -7 -115 0 -101 1 -108 20 -108 18 0 20 7
20 84 0 103 12 116 102 116 80 0 88 -11 88 -116 0 -77 2 -84 20 -84 19 0 20 7
20 90 0 83 -2 93 -25 115 -20 21 -34 25 -85 25 -60 0 -97 -11 -112 -34 -5 -6
-8 -1 -8 12 0 21 -19 30 -33 15z"/>
<path d="M7402 5004 c-12 -8 -22 -22 -22 -30 0 -19 36 -18 44 1 4 11 22 15 74
15 76 0 86 -6 97 -59 7 -31 5 -33 -11 -26 -57 23 -171 17 -199 -11 -24 -24
-19 -71 10 -90 33 -21 156 -24 181 -3 13 11 18 11 21 2 3 -7 11 -13 19 -13 11
0 14 18 14 80 0 89 -11 123 -47 139 -37 17 -154 14 -181 -5z"/>
<path d="M7690 4905 c0 -96 3 -115 15 -115 12 0 15 16 15 80 0 103 14 120 98
120 86 0 95 -10 100 -114 3 -64 8 -86 18 -86 11 0 14 20 14 90 0 83 -2 93 -25
115 -20 21 -34 25 -85 25 -35 0 -74 -6 -90 -15 -27 -14 -30 -14 -30 0 0 8 -7
15 -15 15 -12 0 -15 -19 -15 -115z"/>
<path d="M8042 5010 c-29 -12 -42 -48 -42 -116 0 -45 4 -59 25 -79 22 -23 32
-25 107 -25 90 0 128 15 128 51 0 26 -18 24 -40 -3 -16 -20 -28 -23 -84 -23
-85 0 -101 14 -100 92 2 72 15 83 106 83 57 0 70 -3 80 -20 17 -27 40 -26 36
2 -2 12 -14 28 -28 35 -29 15 -154 16 -188 3z"/>
<path d="M8362 5010 c-43 -18 -64 -103 -42 -167 15 -41 47 -53 140 -53 67 0
83 3 100 20 11 11 20 25 20 30 0 17 -32 11 -46 -7 -19 -27 -150 -26 -170 1 -8
11 -14 28 -14 38 0 16 11 18 110 18 90 0 112 3 117 15 9 25 -20 89 -47 102
-29 15 -134 16 -168 3z"/>
<path d="M6010 4510 c-43 -10 -60 -33 -60 -80 0 -62 23 -74 158 -80 65 -3 123
-9 130 -13 17 -12 15 -72 -4 -88 -20 -17 -180 -24 -216 -10 -16 6 -28 17 -28
26 0 8 -9 15 -20 15 -30 0 -25 -36 7 -57 22 -15 49 -18 139 -18 99 0 116 3
141 21 22 17 29 30 31 66 5 71 -14 81 -159 88 -104 4 -123 8 -135 24 -18 25
-18 29 5 57 17 22 29 24 114 27 97 4 137 -6 137 -33 0 -8 9 -15 20 -15 40 0
16 53 -31 69 -36 12 -177 13 -229 1z"/>
<path d="M2230 4360 c0 -125 2 -150 15 -150 12 0 15 24 17 138 l3 137 93 -137
c68 -101 98 -138 113 -138 15 0 43 36 109 137 l90 138 0 -138 c0 -130 1 -137
20 -137 19 0 20 7 20 150 l0 150 -32 0 c-31 0 -38 -8 -118 -130 -47 -71 -87
-130 -90 -130 -3 0 -43 59 -90 130 -80 122 -87 130 -117 130 l-33 0 0 -150z"/>
<path d="M5530 4470 c0 -25 -4 -30 -25 -30 -16 0 -25 -6 -25 -15 0 -9 9 -15
25 -15 25 0 25 -1 25 -80 0 -67 3 -83 20 -100 26 -26 109 -28 138 -2 26 22 40
82 19 82 -8 0 -18 -15 -23 -32 -9 -32 -12 -33 -59 -33 l-50 0 -3 83 -3 82 71
0 c56 0 70 3 70 15 0 12 -14 15 -70 15 l-70 0 0 30 c0 23 -4 30 -20 30 -16 0
-20 -7 -20 -30z"/>
<path d="M7010 4470 c0 -25 -4 -30 -25 -30 -32 0 -34 -27 -2 -32 20 -3 22 -9
27 -86 4 -68 9 -86 24 -98 28 -20 109 -18 134 4 24 21 38 82 18 82 -7 0 -17
-15 -22 -32 -9 -32 -12 -33 -59 -33 l-50 0 -3 83 -3 82 71 0 c56 0 70 3 70 15
0 12 -14 15 -70 15 l-70 0 0 30 c0 23 -4 30 -20 30 -16 0 -20 -7 -20 -30z"/>
<path d="M2812 4424 c-24 -17 -30 -44 -8 -44 7 0 19 7 26 15 9 10 32 15 75 15
69 0 95 -17 95 -63 0 -24 -2 -25 -32 -16 -42 12 -120 12 -152 -1 -51 -19 -59
-87 -13 -111 31 -17 160 -17 181 0 10 9 16 10 16 2 0 -6 10 -11 21 -11 21 0
21 4 17 91 -4 85 -6 94 -32 115 -23 20 -38 24 -99 24 -50 0 -80 -5 -95 -16z"/>
<path d="M3090 4325 c0 -108 1 -115 20 -115 18 0 20 7 20 84 0 103 12 116 101
116 78 0 89 -14 89 -118 0 -77 1 -82 21 -82 20 0 21 4 17 96 -3 86 -5 98 -27
115 -29 23 -132 26 -173 5 -24 -13 -28 -13 -28 0 0 8 -9 14 -20 14 -19 0 -20
-7 -20 -115z"/>
<path d="M3460 4433 c-17 -6 -40 -32 -40 -45 0 -13 30 -9 46 7 11 10 36 15 79
15 55 0 66 -3 79 -22 9 -12 16 -32 16 -45 0 -20 -3 -21 -32 -12 -68 19 -171 6
-190 -24 -16 -25 -8 -66 15 -81 36 -23 117 -29 165 -13 23 8 42 11 42 6 0 -5
9 -9 20 -9 18 0 20 7 20 53 -1 81 -16 139 -40 159 -17 14 -39 18 -94 17 -39 0
-78 -3 -86 -6z"/>
<path d="M3772 4430 c-56 -23 -68 -149 -19 -197 21 -22 35 -26 88 -27 35 0 76
2 92 7 23 6 27 4 27 -12 0 -10 -7 -24 -15 -31 -20 -16 -152 -17 -168 -1 -16
16 -37 14 -37 -4 0 -24 35 -35 114 -35 85 0 119 12 135 47 6 13 11 77 11 143
0 113 -1 120 -20 120 -11 0 -20 -5 -20 -10 0 -7 -6 -7 -19 0 -24 12 -137 12
-169 0z m170 -37 c13 -12 18 -31 18 -73 0 -75 -12 -85 -102 -85 -83 0 -98 13
-98 89 0 71 17 86 98 86 47 0 71 -5 84 -17z"/>
<path d="M4079 4411 c-26 -26 -29 -36 -29 -91 0 -75 26 -109 87 -112 114 -5
173 12 173 49 0 19 -27 16 -39 -4 -8 -15 -23 -18 -80 -18 -74 0 -93 9 -106 53
-6 22 -6 22 109 22 l116 0 0 38 c-1 67 -37 92 -135 92 -60 0 -69 -3 -96 -29z"/>
<path d="M4370 4325 c0 -96 3 -115 15 -115 12 0 15 16 15 80 0 100 15 120 89
120 72 0 81 -13 81 -116 0 -77 2 -84 20 -84 18 0 20 7 20 84 0 76 2 86 22 100
26 18 90 21 119 6 17 -9 19 -22 19 -100 0 -83 1 -90 20 -90 19 0 20 7 20 95 0
82 -3 98 -20 115 -25 25 -116 28 -161 5 -27 -14 -32 -14 -51 0 -29 19 -110 19
-148 0 -27 -14 -30 -14 -30 0 0 8 -7 15 -15 15 -12 0 -15 -19 -15 -115z"/>
<path d="M4889 4411 c-26 -26 -29 -36 -29 -91 0 -75 26 -109 87 -112 114 -5
173 12 173 49 0 19 -27 16 -39 -4 -8 -15 -23 -18 -80 -18 -74 0 -93 9 -106 53
-6 22 -6 22 109 22 l116 0 0 38 c-1 67 -37 92 -135 92 -60 0 -69 -3 -96 -29z"/>
<path d="M5180 4325 c0 -92 3 -115 14 -115 11 0 15 20 17 85 3 49 9 89 17 97
6 6 40 14 75 16 90 5 99 -4 105 -112 3 -64 8 -86 18 -86 11 0 14 21 14 94 0
90 -1 96 -26 115 -33 26 -130 29 -174 6 -27 -14 -30 -14 -30 0 0 8 -7 15 -15
15 -12 0 -15 -19 -15 -115z"/>
<path d="M6359 4383 c16 -32 45 -87 65 -122 40 -70 38 -85 -15 -96 -16 -4 -29
-13 -29 -21 0 -17 16 -18 59 -3 28 10 41 29 102 150 38 76 69 141 69 144 0 3
-8 5 -18 5 -14 0 -31 -26 -65 -100 -25 -55 -49 -100 -51 -100 -3 0 -28 45 -56
100 -39 77 -55 100 -70 100 -19 0 -19 -3 9 -57z"/>
<path d="M6682 4424 c-26 -18 -30 -75 -7 -94 8 -7 56 -15 105 -18 72 -4 93 -8
100 -22 6 -12 5 -23 -5 -36 -19 -27 -161 -28 -176 -1 -12 21 -39 23 -39 3 0
-31 42 -46 130 -46 103 0 130 14 130 65 0 50 -28 65 -120 65 -87 0 -123 16
-104 47 15 25 171 32 180 8 8 -19 44 -20 44 -1 0 31 -42 46 -130 46 -61 0 -92
-4 -108 -16z"/>
<path d="M7280 4427 c-32 -16 -50 -52 -50 -104 0 -90 30 -115 140 -115 83 0
115 10 123 42 6 25 -20 28 -38 3 -8 -11 -31 -18 -71 -20 -72 -5 -108 11 -112
50 l-3 27 111 0 c82 0 112 3 116 13 9 25 -20 91 -46 104 -32 16 -138 16 -170
0z"/>
<path d="M7550 4325 c0 -91 3 -115 14 -115 10 0 15 22 18 86 5 100 15 114 86
114 76 0 82 -8 82 -110 0 -83 1 -90 20 -90 18 0 20 7 20 85 0 78 2 86 24 100
16 11 41 15 72 13 61 -4 74 -25 74 -125 0 -58 3 -73 15 -73 12 0 15 17 15 95
0 82 -3 98 -20 115 -25 25 -116 28 -161 5 -27 -14 -31 -14 -45 0 -20 20 -123
21 -150 0 -25 -19 -34 -19 -34 0 0 8 -7 15 -15 15 -12 0 -15 -19 -15 -115z"/>
</g>
</svg>
